<svg width="86" height="108" viewBox="0 0 86 108" fill="none" xmlns="http://www.w3.org/2000/svg">
<path fill-rule="evenodd" clip-rule="evenodd" d="M0.333496 104.667C0.333496 103.959 0.614448 103.281 1.11455 102.781C1.61464 102.281 2.29292 102 3.00016 102H83.0002C83.7074 102 84.3857 102.281 84.8858 102.781C85.3859 103.281 85.6668 103.959 85.6668 104.667C85.6668 105.374 85.3859 106.052 84.8858 106.552C84.3857 107.052 83.7074 107.333 83.0002 107.333H3.00016C2.29292 107.333 1.61464 107.052 1.11455 106.552C0.614448 106.052 0.333496 105.374 0.333496 104.667Z" fill="#A8A7AB"/>
<path fill-rule="evenodd" clip-rule="evenodd" d="M11.0003 48.6666V102H24.3337V48.6666H11.0003ZM8.33366 43.3333C7.62641 43.3333 6.94814 43.6142 6.44804 44.1143C5.94794 44.6144 5.66699 45.2927 5.66699 45.9999V104.667C5.66699 105.374 5.94794 106.052 6.44804 106.552C6.94814 107.052 7.62641 107.333 8.33366 107.333H27.0003C27.7076 107.333 28.3858 107.052 28.8859 106.552C29.386 106.052 29.667 105.374 29.667 104.667V45.9999C29.667 45.2927 29.386 44.6144 28.8859 44.1143C28.3858 43.6142 27.7076 43.3333 27.0003 43.3333H8.33366Z" fill="#A8A7AB"/>
<path fill-rule="evenodd" clip-rule="evenodd" d="M24.3335 0.666626L67.0002 16.6666V54H61.6668V20.3626L29.6668 8.36263V102H51.0002C51.0002 102.707 51.2811 103.385 51.7812 103.886C52.2813 104.386 52.9596 104.667 53.6668 104.667H67.0002V107.333H24.3335V0.666626Z" fill="#A8A7AB"/>
<path d="M32.3335 24.6666H37.6668V30H32.3335V24.6666ZM43.0002 24.6666H48.3335V30H43.0002V24.6666ZM53.6668 24.6666H59.0002V30H53.6668V24.6666ZM32.3335 35.3333H37.6668V40.6666H32.3335V35.3333ZM43.0002 35.3333H48.3335V40.6666H43.0002V35.3333ZM53.6668 35.3333H59.0002V40.6666H53.6668V35.3333ZM32.3335 46H37.6668V51.3333H32.3335V46ZM43.0002 46H48.3335V51.3333H43.0002V46ZM53.6668 46H59.0002V51.3333H53.6668V46ZM32.3335 56.6666H37.6668V62H32.3335V56.6666ZM43.0002 56.6666H48.3335V62H43.0002V56.6666ZM32.3335 67.3333H37.6668V72.6666H32.3335V67.3333ZM43.0002 67.3333H48.3335V72.6666H43.0002V67.3333ZM32.3335 78H37.6668V83.3333H32.3335V78ZM43.0002 78H48.3335V83.3333H43.0002V78ZM32.3335 88.6666H37.6668V94H32.3335V88.6666ZM43.0002 88.6666H48.3335V94H43.0002V88.6666Z" fill="#A8A7AB"/>
<path fill-rule="evenodd" clip-rule="evenodd" d="M56.3333 59.3333V102H75V59.3333H56.3333ZM53.6667 54C52.9594 54 52.2811 54.2809 51.781 54.781C51.2809 55.2811 51 55.9594 51 56.6667V104.667C51 105.374 51.2809 106.052 51.781 106.552C52.2811 107.052 52.9594 107.333 53.6667 107.333H77.6667C78.3739 107.333 79.0522 107.052 79.5523 106.552C80.0524 106.052 80.3333 105.374 80.3333 104.667V56.6667C80.3333 55.9594 80.0524 55.2811 79.5523 54.781C79.0522 54.2809 78.3739 54 77.6667 54H53.6667Z" fill="#A8A7AB"/>
<path fill-rule="evenodd" clip-rule="evenodd" d="M69.667 70H61.667V64.6666H69.667V70ZM69.667 80.6666H61.667V75.3333H69.667V80.6666ZM69.667 91.3333H61.667V86H69.667V91.3333ZM69.667 102H61.667V96.6666H69.667V102ZM19.0003 24.6666V48.6666H13.667V24.6666H19.0003Z" fill="#A8A7AB"/>
</svg>
